<svg xmlns="http://www.w3.org/2000/svg" viewBox="0 0 170 60">
  <path d="M30.5 17.8c1.5-1.9 2.5-4.5 2.2-7.1-2.1.1-4.7 1.4-6.2 3.2-1.4 1.6-2.6 4.1-2.2 6.6 2.3.2 4.7-1.2 6.2-2.7zm2.2 3.1c-3.4-.2-6.3 1.9-7.9 1.9-1.6 0-4.1-1.8-6.8-1.8-3.5.1-6.7 2-8.5 5.2-3.6 6.3-1 15.6 2.6 20.7 1.7 2.5 3.8 5.3 6.5 5.2 2.6-.1 3.6-1.7 6.7-1.7 3.1 0 4 1.7 6.7 1.6 2.8-.1 4.6-2.5 6.3-5 2-2.9 2.8-5.6 2.8-5.8-.1 0-5.5-2.1-5.5-8.3 0-5.2 4.2-7.6 4.4-7.8-2.4-3.6-6.2-4-7.3-4.2z" fill="#555" transform="translate(2,3) scale(0.95)"/>
  <text x="55" y="40" font-family="-apple-system,BlinkMacSystemFont,'Helvetica Neue',Arial,sans-serif" font-size="32" fill="#555" font-weight="500">Apple</text>
</svg>