<svg xmlns="http://www.w3.org/2000/svg" viewBox="0 0 170 56">
  <path d="M30.1 13.5c1.2-1.5 2-3.6 1.8-5.7-1.7.1-3.8 1.1-5 2.6-1.1 1.3-2.1 3.3-1.8 5.3 1.9.1 3.8-1 5-2.2zm1.8 2.5c-2.7-.2-5.1 1.6-6.4 1.6-1.3 0-3.3-1.5-5.5-1.4-2.8.1-5.4 1.6-6.8 4.2-2.9 5.1-.8 12.6 2.1 16.7 1.4 2 3 4.3 5.2 4.2 2.1-.1 2.9-1.4 5.4-1.4 2.5 0 3.2 1.4 5.4 1.3 2.3-.1 3.7-2 5.1-4.1 1.6-2.3 2.2-4.6 2.3-4.7-.1 0-4.4-1.7-4.5-6.7 0-4.2 3.4-6.2 3.6-6.3-2-2.9-5.1-3.2-6.2-3.4h.3z" fill="#333"/>
  <text x="52" y="37" font-family="-apple-system,BlinkMacSystemFont,'SF Pro Display','Helvetica Neue',Arial,sans-serif" font-size="30" fill="#333" font-weight="500">Apple</text>
</svg>
