<svg xmlns="http://www.w3.org/2000/svg" viewBox="0 0 110 54">
<g fill="none" fill-rule="nonzero">
<path fill="#85888C" d="M100.68 0v8H47.76v10.47h1.77V9.65h52.92V0h-1.77M76.29 24.71v7.39H72v4.15h-4v4.63H18.67v1.7h51V38h4v-4.2H78v-9.09h-1.7"/>
<path fill="#005A9C" d="M18.83 12.42H31l1.64.1s9.84.58 12 9.6S40.15 38 30.34 38.14c-9.81.14-11.65 0-11.65 0v-1.5l1.3-.11.85-.13a2.36 2.36 0 00.78-.24 1.45 1.45 0 00.64-.78 3 3 0 00.11-.94V16.58v-.6a4.84999 4.84999 0 00-.08-.53 1.47 1.47 0 00-.19-.4 1.24 1.24 0 00-.4-.39 2.07 2.07 0 00-.5-.23 7.7 7.7 0 00-1.25-.34c-.37-.07-.73-.13-1.1-.17v-1.5m7.89 1.84v19.06S26.55 35.41 28 36a10.57 10.57 0 005.5.13c1.49-.38 6.93-2 6.56-11.44-.37-9.44-8-10.52-9.77-10.52-1.77 0-3.57.09-3.57.09h.02zM52.58 13.94v-1.52H65.2s8.9-.18 8.47 7C73.24 26.6 64.48 27 63.65 27h-3v7.49a2.75 2.75 0 00.12 1.1 1.39 1.39 0 00.81.69 4.79 4.79 0 001.13.28l.62.07a6 6 0 001.27 0v1.59H52.72v-1.63l1.78-.14a3.73 3.73 0 00.46-.09 2.19 2.19 0 00.8-.33 1.21 1.21 0 00.39-.66 3 3 0 00.15-.84V16.19a1.86 1.86 0 00-.36-1.41c-.5-.62-3.36-.84-3.36-.84m8.1.22v11h2s5.93.22 6-5.21c.07-5.43-3.62-6.22-8-5.79zM81.18 12.4h12.3s7.51-.38 8.88 4.68c1.37 5.06-3.39 7.37-3.92 7.58-.53.21-2.41.91-2.41.91l6.5 8.25a8.8 8.8 0 002.87 2.37 5.47 5.47 0 002.48.42v1.54h-7.45l-4.22-5.94-4.48-5.59h-2.62v7.65s-.1 1.57.81 1.89a16 16 0 003 .42v1.57H81.15v-1.54s2.42 0 3.11-.59a1.81 1.81 0 00.55-1.38V16.07a1.9 1.9 0 00-.63-1.5 11.19 11.19 0 00-3-.63V12.4m7.93 1.75v10.69h2.42s5.9 0 6-5.7a6.82 6.82 0 00-.1-1.35 4.13 4.13 0 00-.37-1.09 4.3 4.3 0 00-.54-.84 3.32 3.32 0 00-.7-.65 4.88 4.88 0 00-.8-.46 5.44 5.44 0 00-.79-.32 8.64 8.64 0 00-.85-.19l-.75-.09h-3.52z"/>
<path fill="#BE2F26" d="M32.61 16.87C14.70004 16.88585.14815 31.33065 0 49.24h2c.05124-8.12916 3.31527-15.90818 9.08-21.64 5.64167-5.78503 13.38953-9.03285 21.47-9l.06-1.78"/>
<path fill="#005A9C" d="M23.5 49.42l-1.38.08c0-.79-.33-1.19-.93-1.19-.6 0-1 .61-1 1.84a2.64 2.64 0 00.28 1.44.94.94 0 00.79.38c.55 0 .88-.36 1-1.07l1.24.1a2.27 2.27 0 01-.75 1.54c-1.02105.79378-2.47725.68576-3.37-.25a3.07 3.07 0 01-.7-2.13 3.19 3.19 0 01.68-2.1 2.28 2.28 0 011.85-.81 2.13 2.13 0 012.29 2.19M29.18 53.05c-.69415.02845-1.35588-.2949-1.76-.86a3.39 3.39 0 01-.62-2.07 3.3 3.3 0 01.63-2.06c.42688-.556 1.09998-.86637 1.8-.83.70733-.04272 1.38446.29204 1.78.88a3.51 3.51 0 01.6 2A3.41 3.41 0 0131 52.2c-.42106.57084-1.10183.89054-1.81.85m0-4.74c-.69 0-1 .61-1 1.83 0 1.22.35 1.83 1 1.83s1-.61 1-1.83c0-1.22-.3-1.83-.97-1.83h-.03zM39.62 47.32V53h-1.13l-2.21-3.81V53h-1v-5.68h1.42l1.92 3.32a2.85 2.85 0 010-.37v-3h1M47.45 48.56l-1.13.37c-.12437-.43802-.5476-.72159-1-.67-.52 0-.78.17-.78.51a.47.47 0 00.15.35 1.45 1.45 0 00.66.24 6.69 6.69 0 011.26.35 1.68 1.68 0 01.68.57 1.56 1.56 0 01.27.89 1.73 1.73 0 01-.56 1.32 2.44 2.44 0 01-1.74.56 2.7 2.7 0 01-1.48-.4 1.88 1.88 0 01-.8-1.17l1.22-.28c.10597.53142.61594.88175 1.15.79a1.15 1.15 0 00.68-.17.55.55 0 00.22-.42.45.45 0 00-.2-.39 2.6 2.6 0 00-.78-.25 3.71 3.71 0 01-1.54-.61 1.39 1.39 0 01-.45-1.15 1.64 1.64 0 01.55-1.27 2 2 0 011.48-.52c.93803-.1182 1.8307.43658 2.14 1.33M54.88 47.32v1.11h-1.39v4.53h-1.34v-4.53h-1.41v-1.11h4.14M59.58 50.72V53h-1.33v-5.68h2.48a3 3 0 011.1.16 1.38 1.38 0 01.69.58 1.73 1.73 0 01.27.95c.01861.64971-.38608 1.23652-1 1.45l1 2.5H61.4l-.87-2.24h-1m0-2.4v1.44h.81a2 2 0 00.66-.06.61.61 0 00.32-.24.77.77 0 00.14-.44.74.74 0 00-.14-.43.6.6 0 00-.31-.23 3.7 3.7 0 00-.62 0l-.86-.04zM71 47.32v3.51a3.16 3.16 0 01-.19 1.27 1.54 1.54 0 01-.72.68 3.52 3.52 0 01-2.63 0 1.6 1.6 0 01-.72-.69 2.74 2.74 0 01-.24-1.29v-3.48h1.43v3.51a2.16 2.16 0 00.08.67.62.62 0 00.3.34 1.2 1.2 0 00.57.13 1.19 1.19 0 00.6-.13.58.58 0 00.31-.33 2.1 2.1 0 00.08-.68v-3.51H71M79.38 49.42L78 49.5c0-.79-.33-1.19-.93-1.19-.6 0-1 .61-1 1.84a2.55 2.55 0 00.28 1.44.94.94 0 00.79.38c.55 0 .88-.36 1-1.07l1.28.08a2.27 2.27 0 01-.75 1.54c-1.02105.79378-2.47725.68576-3.37-.25a3.07 3.07 0 01-.7-2.13 3.19 3.19 0 01.68-2.1 2.28 2.28 0 011.85-.81 2.13 2.13 0 012.29 2.19M86.52 47.32v1.11h-1.4v4.53h-1.34v-4.53h-1.4v-1.11h4.14M89.89 47.32h1.32v5.64h-1.32zM97.26 53.05c-.6965.03992-1.36348-.28599-1.76-.86a3.39 3.39 0 01-.63-2.07 3.3 3.3 0 01.63-2.06c.43015-.55188 1.10098-.86121 1.8-.83.7108-.04636 1.39262.28884 1.79.88a3.51 3.51 0 01.6 2 3.41 3.41 0 01-.62 2.07c-.42342.56795-1.10254.88688-1.81.85m0-4.74c-.7 0-1 .61-1 1.83 0 1.22.34 1.83 1 1.83.66 0 1-.61 1-1.83 0-1.22-.26-1.81-.96-1.81l-.04-.02zM107.69 47.32V53h-1.13l-2.2-3.81a.87006.87006 0 000 .19 2.18 2.18 0 010 .24V53h-1v-5.68h1.43l1.92 3.32a3.31992 3.31992 0 010-.37v-3h1M107.69 31c1.11644-.00064 2.03225.8842 2.07 2a1.89 1.89 0 01-.16.79 2 2 0 01-.44.66 2.38 2.38 0 01-.69.46 2.09 2.09 0 01-.78.16 2.14 2.14 0 01-.79-.16 2.17 2.17 0 01-.67-.46 1.89 1.89 0 01-.45-.67 2.09 2.09 0 01-.16-.78 2.19 2.19 0 01.16-.8 2.24 2.24 0 01.47-.68 1.92 1.92 0 01.65-.44 2.06 2.06 0 01.79-.15m1.82 2.08a1.9 1.9 0 00-.52-1.29 1.8 1.8 0 00-.6-.4 1.83033 1.83033 0 00-.71-.14002 2.00042 2.00042 0 00-.69.13002 1.7 1.7 0 00-.57.39 2 2 0 00-.41.6 1.86001 1.86001 0 00-.14.7 1.81001 1.81001 0 00.14.69 1.76 1.76 0 00.4.59 1.94 1.94 0 00.58.4 1.8 1.8 0 00.69.13 1.85 1.85 0 00.7-.13 1.99999 1.99999 0 00.6-.4 1.74 1.74 0 00.39-.58 1.81 1.81 0 00.14-.65v-.04zm-1.77-1.23a1.44 1.44 0 01.75.16.55.55 0 01.24.49.6.6 0 01-.15.42.68.68 0 01-.4.21l.53 1.09h-.45l-.49-1h-.5v1h-.4v-2.33l.87-.04zm-.07.26h-.4v.82h.41a1 1 0 00.49-.09.34.34 0 00.15-.31.36.36 0 00-.15-.32.91.91 0 00-.5-.06v-.04z"/>
</g>
</svg>
