<svg xmlns="http://www.w3.org/2000/svg" viewBox="0 0 320 80">
  <!-- Harvard Business School Logo -->
  <!-- Crimson Shield -->
  <g transform="translate(10, 4)">
    <!-- Shield outline -->
    <path d="M0,0 L56,0 L56,48 L28,70 L0,48 Z" fill="#A41034"/>
    <!-- White decorative border inside shield -->
    <path d="M3,3 L53,3 L53,46 L28,66 L3,46 Z" fill="none" stroke="#FFFFFF" stroke-width="1"/>
    <!-- Horizontal divider -->
    <line x1="6" y1="38" x2="50" y2="38" stroke="#FFFFFF" stroke-width="1"/>
    <!-- VE RI TAS in three books arrangement -->
    <!-- Top row: two books -->
    <g fill="#FFFFFF">
      <!-- Left book -->
      <rect x="8" y="8" width="18" height="14" rx="1"/>
      <!-- Right book -->
      <rect x="30" y="8" width="18" height="14" rx="1"/>
      <!-- Bottom book -->
      <rect x="19" y="25" width="18" height="11" rx="1"/>
    </g>
    <!-- Book text -->
    <text x="17" y="19" font-family="Georgia,serif" font-size="7" fill="#A41034" text-anchor="middle" font-weight="700">VE</text>
    <text x="39" y="19" font-family="Georgia,serif" font-size="7" fill="#A41034" text-anchor="middle" font-weight="700">RI</text>
    <text x="28" y="34" font-family="Georgia,serif" font-size="7" fill="#A41034" text-anchor="middle" font-weight="700">TAS</text>
    <!-- Decorative elements below divider -->
    <g fill="#FFFFFF">
      <circle cx="16" cy="47" r="3"/>
      <circle cx="28" cy="47" r="3"/>
      <circle cx="40" cy="47" r="3"/>
      <circle cx="22" cy="56" r="2.5"/>
      <circle cx="34" cy="56" r="2.5"/>
    </g>
  </g>
  <!-- Vertical crimson divider -->
  <line x1="82" y1="10" x2="82" y2="68" stroke="#A41034" stroke-width="1.8"/>
  <!-- Harvard Business School stacked text -->
  <text x="96" y="30" font-family="Georgia,'Times New Roman',serif" font-size="22" fill="#1a1a1a" font-weight="400">Harvard</text>
  <text x="96" y="50" font-family="Georgia,'Times New Roman',serif" font-size="22" fill="#1a1a1a" font-weight="400">Business</text>
  <text x="96" y="70" font-family="Georgia,'Times New Roman',serif" font-size="22" fill="#1a1a1a" font-weight="400">School</text>
</svg>
